PathFileType	4	(X/Y/Z)	C:/Users/opensim2020/Desktop/walking_exp_matlab/subject03_walking10_straight_03.trc																																																																																																																																					
DataRate	CameraRate	NumFrames	NumMarkers	Units	OrigDataRate	OrigDataStartFrame	OrigNumFrames																																																																																																																																	
100	100	5	45	mm	100	2842	417																																																																																																																																	
Frame#	Time	LFHD			RFHD			LBHD			RBHD			C7			T10			CLAV			STRN			RBAK			LSHO			LUPA			LELB			LFRM			LWRA			LWRB			LFIN			RSHO			RUPA			RELB			RFRM			RWRA			RWRB			RFIN			LASI			RASI			LPSI			RPSI			LTHI			LKNE			LTIB			LANK			LHEE			LTOE			RTHI			RKNE			RTIB			RANK			RHEE			RTOE			*39			*40			*41			*42			*43			*44		
		X1	Y1	Z1	X2	Y2	Z2	X3	Y3	Z3	X4	Y4	Z4	X5	Y5	Z5	X6	Y6	Z6	X7	Y7	Z7	X8	Y8	Z8	X9	Y9	Z9	X10	Y10	Z10	X11	Y11	Z11	X12	Y12	Z12	X13	Y13	Z13	X14	Y14	Z14	X15	Y15	Z15	X16	Y16	Z16	X17	Y17	Z17	X18	Y18	Z18	X19	Y19	Z19	X20	Y20	Z20	X21	Y21	Z21	X22	Y22	Z22	X23	Y23	Z23	X24	Y24	Z24	X25	Y25	Z25	X26	Y26	Z26	X27	Y27	Z27	X28	Y28	Z28	X29	Y29	Z29	X30	Y30	Z30	X31	Y31	Z31	X32	Y32	Z32	X33	Y33	Z33	X34	Y34	Z34	X35	Y35	Z35	X36	Y36	Z36	X37	Y37	Z37	X38	Y38	Z38	X39	Y39	Z39	X40	Y40	Z40	X41	Y41	Z41	X42	Y42	Z42	X43	Y43	Z43	X44	Y44	Z44	X45	Y45	Z45
																																																																																																																																								
105	1.04	-557.17108	1625.34229	1388.2074	-552.94543	1628.70532	1521.40649	-677.5813	1564.54272	1397.13367	-668.72644	1568.1886	1527.76868	-691.60358	1418.14258	1460.49878	-738.03186	1108.06592	1464.92395	-574.00891	1336.20496	1447.74329	-539.72504	1168.65112	1440.57837	-739.70557	1248.88135	1566.21387	-635.21613	1375.99951	1297.52429	-682.72235	1182.77771	1229.67261	-692.87543	1060.78552	1213.28784	-667.34729	933.66577	1206.37976	-637.77307	817.13531	1230.60767	-673.79834	820.92841	1187.88623	-651.11725	739.65027	1191.4635	-596.46588	1362.76611	1610.34131	-557.52582	1147.8053	1686.56104	-517.57306	1042.88245	1697.35852	-465.08694	916.57965	1692.77209	-416.74536	833.40228	1648.51624	-437.52997	820.6217	1696.29102	-395.26157	761.18195	1682.83582	-585.64355	939.05841	1336.47559	-572.28796	937.22565	1572.83472	-745.3537	961.94958	1392.72339	-733.75317	975.97455	1541.78564	-579.79175	641.93939	1283.396	-509.75464	478.65613	1321.56873	-513.90222	286.04953	1316.20996	-477.78018	76.91668	1346.85828	-511.92627	37.56907	1386.27319	-326.84406	59.7693	1371.1394	-665.02374	648.54584	1608.62317	-684.55817	470.21802	1571.50854	-763.2077	294.25348	1569.9823	-820.06122	84.58504	1514.36951	-866.12097	59.01656	1462.31226	-680.96539	36.01947	1496.05078	NaN	NaN	NaN	NaN	NaN	NaN	NaN	NaN	NaN	NaN	NaN	NaN	NaN	NaN	NaN	NaN	NaN	NaN
106	1.05	-550.38007	1624.54224	1387.49866	-546.14691	1628.01135	1520.64893	-670.70984	1563.56995	1396.46692	-661.85345	1567.3772	1527.08093	-684.75269	1417.48792	1459.73901	-731.16931	1107.27734	1463.96594	-567.10486	1335.46899	1447.24841	-532.8446	1167.83081	1440.18323	-733.50049	1248.34302	1565.68909	-628.12939	1375.15662	1296.87061	-675.80182	1181.74072	1229.78418	-686.33813	1059.70825	1214.04138	-661.2265	932.44092	1207.27283	-631.46185	816.01208	1231.76318	-667.74072	819.57544	1189.39221	-645.26172	738.28662	1193.19067	-589.82227	1361.974	1609.72485	-550.68347	1147.05359	1685.86731	-510.38077	1042.26978	1696.45825	-457.26682	916.2486	1691.40735	-408.57242	833.24609	1646.72131	-429.25705	820.42102	1694.61047	-386.57321	761.30121	1680.87463	-578.41113	938.10553	1336.12036	-565.87775	936.63763	1572.58069	-738.17676	960.85718	1391.81604	-727.25403	975.12085	1540.89856	-574.18231	640.28625	1283.33215	-503.89893	477.32428	1322.92065	-502.54269	285.4147	1317.05151	-458.78802	77.36498	1346.83484	-491.0162	36.70277	1386.24182	-306.71344	64.51563	1369.8418	-659.63715	648.19824	1608.5094	-680.03644	469.92352	1571.70801	-760.46368	294.55093	1570.21899	-819.5564	85.37842	1514.70166	-865.8446	60.23026	1462.60229	-680.5896	36.20666	1496.3385	NaN	NaN	NaN	NaN	NaN	NaN	NaN	NaN	NaN	NaN	NaN	NaN	NaN	NaN	NaN	NaN	NaN	NaN
107	1.06	-543.56549	1623.67554	1386.67639	-539.27979	1627.2616	1519.87134	-663.83954	1562.65295	1395.76025	-654.94019	1566.52136	1526.40039	-677.69696	1416.66187	1458.9054	-724.42938	1106.52246	1462.99475	-560.08167	1334.59949	1446.71118	-526.00903	1166.95178	1439.77539	-726.4115	1247.46863	1564.66077	-620.9613	1374.17468	1296.13599	-668.99573	1180.62024	1229.81274	-680.28851	1058.49219	1214.48438	-654.88452	931.27435	1208.14783	-625.03278	814.78296	1232.81897	-661.69922	818.29791	1190.73828	-639.35754	736.888	1194.96704	-583.27557	1361.1969	1609.05603	-543.883	1146.24304	1685.06726	-503.23892	1041.53259	1695.46753	-449.63107	915.62146	1689.92676	-400.48535	833.39075	1645.13586	-421.2905	820.07703	1692.89746	-378.24841	761.25726	1679.02271	-571.24017	936.95093	1335.68286	-559.60254	936.04749	1572.27551	-730.93237	959.74677	1390.76855	-720.78461	974.26068	1539.90527	-568.0885	638.54834	1283.03137	-498.06543	475.70721	1324.1123	-491.80026	284.7666	1317.90454	-441.15118	77.89381	1346.76892	-471.79568	36.65191	1386.61487	-288.04581	69.39972	1367.89795	-654.1601	647.74542	1608.45117	-675.25446	469.5752	1571.8761	-757.61365	294.86835	1570.41711	-818.95972	86.08698	1514.90967	-865.54718	61.48624	1462.92505	-680.64417	35.92414	1496.25037	-631.021	1673.22095	1441.95117	NaN	NaN	NaN	NaN	NaN	NaN	NaN	NaN	NaN	NaN	NaN	NaN	NaN	NaN	NaN
108	1.07	-536.68518	1622.89734	1385.90186	-532.40497	1626.49121	1519.09558	-656.80524	1561.69104	1395.01416	-647.9812	1565.65088	1525.67407	-670.72205	1415.86792	1458.11511	-717.68774	1105.82825	1461.96973	-553.00867	1333.74719	1446.10571	-518.92438	1166.03955	1439.43408	-719.66418	1246.75537	1563.74646	-613.60242	1373.22424	1295.38562	-661.78864	1179.41101	1229.80408	-673.62689	1057.29626	1214.92651	-648.45343	929.91992	1209.00317	-618.45856	813.70972	1233.86572	-655.4306	816.88165	1192.13989	-633.22174	735.41711	1196.7594	-576.46979	1360.3584	1608.44263	-537.125	1145.41724	1684.28564	-496.2594	1040.71997	1694.45752	-442.19247	915.14368	1688.54248	-392.70837	833.08203	1643.49487	-413.46359	819.54114	1691.18359	-370.24878	761.01129	1677.125	-563.78101	936.00433	1335.29504	-553.20117	935.3407	1571.93103	-723.69476	958.55688	1389.56506	-714.14722	973.38422	1538.78406	-561.59473	636.88092	1282.59705	-492.04184	474.34738	1325.19995	-481.68839	284.1825	1318.72681	-425.31619	78.93017	1346.70923	-453.67487	36.65386	1386.96912	-271.13184	74.18266	1366.15125	-648.55212	647.27783	1608.31665	-670.35968	469.13318	1572.07092	-754.61548	295.15134	1570.57593	-818.2594	86.98341	1515.30566	-865.20624	62.82443	1463.29358	-680.32288	35.99745	1496.45776	NaN	NaN	NaN	NaN	NaN	NaN	NaN	NaN	NaN	NaN	NaN	NaN	NaN	NaN	NaN	NaN	NaN	NaN
109	1.08	-529.72235	1622.02356	1385.05054	-525.44318	1625.78833	1518.25659	-649.77325	1560.60522	1394.17749	-640.95764	1564.74597	1524.87268	-663.4881	1414.99451	1457.19373	-710.49713	1104.87537	1460.70435	-545.87561	1332.9115	1445.49951	-511.66519	1165.17065	1439.09619	-713.22565	1246.08362	1562.92065	-606.09698	1372.16736	1294.56653	-654.53918	1178.27405	1229.56116	-666.44489	1055.97693	1215.35437	-641.70361	928.58636	1209.82849	-611.59332	812.63696	1234.81958	-648.99829	815.49188	1193.46021	-626.96851	733.91821	1198.47498	-569.52539	1359.5282	1607.80444	-530.41394	1144.47375	1683.38013	-489.30832	1039.86145	1693.39758	-434.89069	914.46521	1687.22351	-385.23093	832.59674	1641.85986	-405.87247	818.90247	1689.49231	-362.42157	760.45752	1675.20715	-556.17413	934.87274	1334.79102	-546.72229	934.56543	1571.4939	-716.55298	957.68939	1388.37793	-707.50958	972.51355	1537.46924	-554.87677	635.31738	1282.54333	-485.96365	472.75623	1326.16223	-472.20303	283.59885	1319.37891	-410.71524	79.58466	1346.59607	-437.43372	36.41183	1386.89685	-255.91492	78.40714	1363.85852	-642.83942	646.77252	1608.2384	-665.19049	468.65109	1572.19226	-751.31573	295.36932	1570.76465	-817.59375	87.91354	1515.71704	-864.83044	64.26045	1463.69446	-680.2428	35.75855	1496.51538	-617.18207	1670.63733	1439.66528	NaN	NaN	NaN	NaN	NaN	NaN	NaN	NaN	NaN	NaN	NaN	NaN	NaN	NaN	NaN
